<?xml version="1.0" encoding="UTF-8" standalone="no"?>
<svg
   height="300px"
   width="300px"
   fill="#000000"
   version="1.1"
   x="0px"
   y="0px"
   viewBox="0 0 90 90"
   style="enable-background:new 0 0 90 90;"
   xml:space="preserve"
   id="svg26"
   sodipodi:docname="icon.svg"
   inkscape:version="1.1.1 (3bf5ae0d25, 2021-09-20)"
   xmlns:inkscape="http://www.inkscape.org/namespaces/inkscape"
   xmlns:sodipodi="http://sodipodi.sourceforge.net/DTD/sodipodi-0.dtd"
   xmlns="http://www.w3.org/2000/svg"
   xmlns:svg="http://www.w3.org/2000/svg"><defs
     id="defs30" /><sodipodi:namedview
     id="namedview28"
     pagecolor="#ffffff"
     bordercolor="#666666"
     borderopacity="1.0"
     inkscape:pageshadow="2"
     inkscape:pageopacity="0.0"
     inkscape:pagecheckerboard="0"
     showgrid="false"
     inkscape:zoom="2.91"
     inkscape:cx="150"
     inkscape:cy="149.82818"
     inkscape:window-width="3840"
     inkscape:window-height="2089"
     inkscape:window-x="3832"
     inkscape:window-y="1192"
     inkscape:window-maximized="1"
     inkscape:current-layer="svg26" /><rect
     style="fill:#ff0000;stroke-width:0.1332;stroke-linecap:round;stroke-linejoin:round"
     id="rect869"
     width="13.035889"
     height="16.720093"
     x="38.482056"
     y="34.826416" /><polygon
     points="50.4577637,17.6204224 72.9795532,17.6204224 71.444519,14.515625 50.4577637,14.515625 "
     id="polygon2" /><path
     d="M82.5741577,37.0257568l-8.5430908-17.2787476H50.4577637v12.9528198h2.1234741  c0.5877075,0,1.0632935,0.4755859,1.0632935,1.0632935v3.2626343H82.5741577z"
     id="path4" /><rect
     x="41.6688843"
     y="14.515625"
     width="6.6622314"
     height="18.1842041"
     id="rect6" /><polygon
     points="39.5422363,17.6204224 39.5422363,14.515625 18.555481,14.515625 17.0204468,17.6204224 "
     id="polygon8" /><path
     d="M36.3554688,37.0257568v-3.2626343c0-0.5877075,0.4755859-1.0632935,1.0632935-1.0632935h2.1234741V19.7470093H15.9689331  L7.4258423,37.0257568H36.3554688z"
     id="path10" /><rect
     x="6.7770996"
     y="39.1523438"
     width="29.5783691"
     height="3.4412231"
     id="rect12" /><path
     d="M41.1610718,75.484375V55.5613403l-4.2750244-2.4821777c-0.328125-0.1900635-0.5305786-0.5410156-0.5305786-0.9200439  v-7.4389648H9.1123657L14.651123,75.484375H41.1610718z"
     id="path14" /><path
     d="M45,57.6241455c-0.1848145,0-0.3696899-0.0477295-0.53479-0.1443481l-1.1774902-0.6837158V75.484375h3.4245605V56.7960815  L45.53479,57.4797974C45.3696899,57.576416,45.1848145,57.6241455,45,57.6241455z"
     id="path16" /><path
     d="M53.6445313,44.7201538v7.4389648c0,0.3790283-0.2024536,0.7299805-0.5305786,0.9200439l-4.2750244,2.4821777V75.484375  H75.348877l5.5387573-30.7642212H53.6445313z"
     id="path18" /><rect
     x="53.6445313"
     y="39.1523438"
     width="29.5783691"
     height="3.4412231"
     id="rect20" /><path
     d="M45,39.1523438c-1.0280151,0-1.8649292,0.8358765-1.8649292,1.8638916c0,0.6396484,0.328125,1.2283936,0.878479,1.5742188  c0.3094482,0.1941528,0.4973755,0.534729,0.4973755,0.9002686v5.6020508h0.9781494v-5.6020508  c0-0.3655396,0.1879272-0.7061157,0.4973755-0.9002686c0.550354-0.3458252,0.878479-0.9345703,0.878479-1.5742188  C46.8649292,39.9882202,46.0280151,39.1523438,45,39.1523438z"
     id="path22" /><path
     d="M51.5179443,34.826416H38.4820557v3.2523193c0.000061,0.0036011,0.0020752,0.0066528,0.0020752,0.0103149  c0,0.0036011-0.0020142,0.0066528-0.0020752,0.0103149v5.5471802c0.000061,0.0036011,0.0020752,0.0066528,0.0020752,0.0103149  c0,0.0036011-0.0020142,0.0066528-0.0020752,0.0103149v7.8793335L45,55.3303833l6.5179443-3.7838745v-7.8793335  c-0.000061-0.0036621-0.0020752-0.0067139-0.0020752-0.0103149c0-0.0036621,0.0020142-0.0067139,0.0020752-0.0103149v-5.5471802  c-0.000061-0.0036621-0.0020752-0.0067139-0.0020752-0.0103149c0-0.0036621,0.0020142-0.0067139,0.0020752-0.0103149V34.826416z   M47.6156616,44.0233765v6.1326904c0,0.5877686-0.4755249,1.0633545-1.0632935,1.0633545h-3.1047363  c-0.5877686,0-1.0632935-0.4755859-1.0632935-1.0633545v-6.1326904c-0.8712158-0.7528076-1.3759155-1.8389282-1.3759155-3.0071411  c0-2.2003174,1.7902222-3.9904785,3.9915771-3.9904785s3.9915771,1.7901611,3.9915771,3.9904785  C48.9915771,42.1844482,48.4868774,43.2705688,47.6156616,44.0233765z"
     id="path24" /></svg>
